<?xml version="1.0" encoding="utf-8"?>
<!-- Generator: Adobe Illustrator 26.0.1, SVG Export Plug-In . SVG Version: 6.00 Build 0)  -->
<svg version="1.1" id="Layer_1" xmlns="http://www.w3.org/2000/svg" xmlns:xlink="http://www.w3.org/1999/xlink" x="0px" y="0px"
	 viewBox="0 0 30 30" style="enable-background:new 0 0 30 30;" xml:space="preserve">
<style type="text/css">
	.st0{fill:#FFE500;}
	.st1{fill:#EACB1B;}
	.st2{fill:#FEF48F;}
	.st3{fill:none;stroke:#46423D;stroke-width:0.38;stroke-linecap:round;stroke-linejoin:round;}
	.st4{fill:#FAA956;}
	.st5{fill:#FEFAD1;}
	.st6{fill:#FFFFFF;stroke:#46423D;stroke-width:0.38;stroke-linecap:round;stroke-linejoin:round;}
	.st7{fill:#FFFFFF;}
</style>
<path class="st0" d="M2.14,15.16c0,3.5,1.4,6.8,3.8,9.3c2.5,2.5,5.8,3.8,9.3,3.8s6.8-1.4,9.3-3.8c2.5-2.5,3.8-5.8,3.8-9.3
	s-1.4-6.8-3.8-9.3c-2.5-2.5-5.8-3.8-9.3-3.8s-6.8,1.4-9.3,3.8C3.54,8.26,2.14,11.66,2.14,15.16z"/>
<path class="st1" d="M15.24,1.96c-2.6,0-5.1,0.8-7.3,2.2s-3.8,3.5-4.8,5.9s-1.3,5-0.7,7.6c0.5,2.5,1.8,4.9,3.6,6.7
	c1.8,1.8,4.2,3.1,6.7,3.6s5.2,0.2,7.6-0.7c2.4-1,4.4-2.7,5.9-4.8c1.4-2.2,2.2-4.7,2.2-7.3c0-3.5-1.4-6.8-3.8-9.3
	C22.04,3.36,18.74,1.96,15.24,1.96z M15.24,26.26c-2.4,0-4.7-0.7-6.7-2s-3.5-3.2-4.4-5.4c-0.9-2.2-1.1-4.6-0.7-6.9
	c0.5-2.3,1.6-4.5,3.3-6.1c1.7-1.7,3.8-2.8,6.1-3.3s4.7-0.2,6.9,0.7s4.1,2.4,5.4,4.4c1.3,2,2,4.3,2,6.7c0,3.2-1.3,6.2-3.5,8.5
	C21.44,25.06,18.44,26.26,15.24,26.26z"/>
<path class="st2" d="M11.34,4.66c0,0.3,0.4,0.5,1.2,0.7c0.7,0.2,1.7,0.3,2.8,0.3s2-0.1,2.8-0.3c0.7-0.2,1.2-0.4,1.2-0.7
	s-0.4-0.5-1.2-0.7c-0.7-0.2-1.7-0.3-2.8-0.3s-2,0.1-2.8,0.3C11.74,4.16,11.34,4.36,11.34,4.66z"/>
<path class="st3" d="M2.14,15.16c0,3.5,1.4,6.8,3.8,9.3c2.5,2.5,5.8,3.8,9.3,3.8s6.8-1.4,9.3-3.8c2.5-2.5,3.8-5.8,3.8-9.3
	s-1.4-6.8-3.8-9.3c-2.5-2.5-5.8-3.8-9.3-3.8s-6.8,1.4-9.3,3.8C3.54,8.26,2.14,11.66,2.14,15.16z"/>
<path class="st4" d="M24.74,18.36c0,0.5-0.7,1-1.6,1c-0.9,0-1.6-0.4-1.6-1c0-0.5,0.7-1,1.6-1C24.04,17.46,24.74,17.86,24.74,18.36z"
	/>
<path class="st4" d="M5.74,18.36c0,0.5,0.7,1,1.6,1c0.9,0,1.6-0.4,1.6-1c0-0.5-0.7-1-1.6-1C6.44,17.46,5.74,17.86,5.74,18.36z"/>
<path class="st1" d="M20.54,15.36l-2,1c-0.1,0.1-0.2,0.1-0.4,0.1c-0.1,0-0.2-0.1-0.3-0.1c-0.1-0.1-0.2-0.2-0.2-0.3
	c0-0.1-0.1-0.2,0-0.4l0.4-2.2c0-0.1,0-0.2,0-0.3s-0.1-0.2-0.2-0.3l-1.6-1.6c-0.1-0.1-0.2-0.2-0.2-0.3s0-0.3,0-0.4
	c0-0.1,0.1-0.2,0.2-0.3c0.1-0.1,0.2-0.1,0.3-0.1l2.2-0.3c0.1,0,0.2-0.1,0.3-0.1c0.1-0.1,0.2-0.1,0.2-0.2l1-2
	c0.1-0.1,0.1-0.2,0.2-0.3c0.1-0.1,0.2-0.1,0.3-0.1s0.2,0,0.3,0.1s0.2,0.2,0.2,0.3l1,2c0,0.1,0.1,0.2,0.2,0.2
	c0.1,0.1,0.2,0.1,0.3,0.1l2.2,0.3c0.1,0,0.2,0.1,0.3,0.1c0.1,0.1,0.2,0.2,0.2,0.3s0,0.2,0,0.4c0,0.1-0.1,0.2-0.2,0.3l-1.6,1.6
	c-0.1,0.1-0.1,0.2-0.2,0.3c0,0.1,0,0.2,0,0.3l0.4,2.2c0,0.1,0,0.2,0,0.4c0,0.1-0.1,0.2-0.2,0.3c-0.1,0.1-0.2,0.1-0.3,0.1
	s-0.2,0-0.4-0.1l-2-1c-0.1-0.1-0.2-0.1-0.3-0.1C20.84,15.26,20.64,15.26,20.54,15.36z"/>
<path class="st5" d="M21.64,13.66l-2,1c-0.1,0.1-0.2,0.1-0.4,0.1c-0.1,0-0.2-0.1-0.3-0.1c-0.1-0.1-0.2-0.2-0.2-0.3s-0.1-0.2,0-0.4
	l0.4-2.2c0-0.1,0-0.2,0-0.3s-0.1-0.2-0.2-0.3l-1.6-1.6c-0.1-0.1-0.2-0.2-0.2-0.3s0-0.2,0-0.4c0-0.1,0.1-0.2,0.2-0.3
	c0.1-0.1,0.2-0.1,0.3-0.1l2.2-0.3c0.1,0,0.2-0.1,0.3-0.1c0.1-0.1,0.2-0.1,0.2-0.2l1-2c0.1-0.1,0.1-0.2,0.2-0.3
	c0.1-0.1,0.2-0.1,0.3-0.1s0.2,0,0.3,0.1s0.2,0.2,0.2,0.3l1,2c0,0.1,0.1,0.2,0.2,0.2s0.2,0.1,0.3,0.1l2.2,0.3c0.1,0,0.2,0.1,0.3,0.1
	c0.1,0.1,0.2,0.2,0.2,0.3s0,0.2,0,0.4c0,0.1-0.1,0.2-0.2,0.3l-1.6,1.6c-0.1,0.1-0.1,0.2-0.2,0.3c0,0.1,0,0.2,0,0.3l0.4,2.2
	c0,0.1,0,0.2,0,0.4c0,0.1-0.1,0.2-0.2,0.3c-0.1,0.1-0.2,0.1-0.3,0.1s-0.2,0-0.4-0.1l-2-1c-0.1-0.1-0.2-0.1-0.3-0.1
	C21.84,13.66,21.74,13.66,21.64,13.66z"/>
<path class="st2" d="M24.94,12.96l-2-1.1c-0.1-0.1-0.3-0.1-0.4-0.1c-0.2,0-0.3,0-0.4,0.1l-2.8,1.5c-0.2,0.1-0.4,0.1-0.5,0.1
	l-0.1,0.6c0,0.1,0,0.2,0,0.4c0,0.1,0.1,0.2,0.2,0.3c0.1,0.1,0.2,0.1,0.3,0.1s0.2,0,0.4-0.1l2-1c0.1,0,0.2-0.1,0.3-0.1s0.2,0,0.3,0.1
	l2,1c0.1,0.1,0.2,0.1,0.4,0.1c0.1,0,0.2-0.1,0.3-0.1c0.1-0.1,0.2-0.2,0.2-0.3s0.1-0.2,0-0.4L24.94,12.96z"/>
<path class="st3" d="M21.64,13.66l-2,1c-0.1,0.1-0.2,0.1-0.4,0.1c-0.1,0-0.2-0.1-0.3-0.1c-0.1-0.1-0.2-0.2-0.2-0.3s-0.1-0.2,0-0.4
	l0.4-2.2c0-0.1,0-0.2,0-0.3s-0.1-0.2-0.2-0.3l-1.6-1.6c-0.1-0.1-0.2-0.2-0.2-0.3s0-0.2,0-0.4c0-0.1,0.1-0.2,0.2-0.3
	c0.1-0.1,0.2-0.1,0.3-0.1l2.2-0.3c0.1,0,0.2-0.1,0.3-0.1c0.1-0.1,0.2-0.1,0.2-0.2l1-2c0.1-0.1,0.1-0.2,0.2-0.3
	c0.1-0.1,0.2-0.1,0.3-0.1s0.2,0,0.3,0.1s0.2,0.2,0.2,0.3l1,2c0,0.1,0.1,0.2,0.2,0.2s0.2,0.1,0.3,0.1l2.2,0.3c0.1,0,0.2,0.1,0.3,0.1
	c0.1,0.1,0.2,0.2,0.2,0.3s0,0.2,0,0.4c0,0.1-0.1,0.2-0.2,0.3l-1.6,1.6c-0.1,0.1-0.1,0.2-0.2,0.3c0,0.1,0,0.2,0,0.3l0.4,2.2
	c0,0.1,0,0.2,0,0.4c0,0.1-0.1,0.2-0.2,0.3c-0.1,0.1-0.2,0.1-0.3,0.1s-0.2,0-0.4-0.1l-2-1c-0.1-0.1-0.2-0.1-0.3-0.1
	C21.84,13.66,21.74,13.66,21.64,13.66z"/>
<path class="st1" d="M9.94,15.36l2,1c0.1,0.1,0.2,0.1,0.4,0.1c0.1,0,0.2-0.1,0.3-0.1c0.1-0.1,0.2-0.2,0.2-0.3c0-0.1,0.1-0.2,0-0.4
	l-0.4-2.2c0-0.1,0-0.2,0-0.3s0.1-0.2,0.2-0.3l1.6-1.6c0.1-0.1,0.2-0.2,0.2-0.3s0-0.2,0-0.4c0-0.1-0.1-0.2-0.2-0.3
	c-0.1-0.1-0.2-0.1-0.3-0.2l-2.2-0.3c-0.1,0-0.2-0.1-0.3-0.1c-0.1-0.1-0.2-0.1-0.2-0.2l-1-2c-0.1-0.1-0.1-0.2-0.2-0.3
	c-0.1-0.1-0.2-0.1-0.3-0.1s-0.2,0-0.3,0.1s-0.2,0.2-0.2,0.3l-1,2c0,0.1-0.1,0.2-0.2,0.2c-0.1,0.1-0.2,0.1-0.3,0.1l-2.2,0.3
	c-0.1,0-0.2,0.1-0.3,0.1c-0.1,0.1-0.2,0.2-0.2,0.3s0,0.2,0,0.4c0,0.1,0.1,0.2,0.2,0.3l1.6,1.6c0.1,0.1,0.1,0.2,0.2,0.3
	c0,0.1,0,0.2,0,0.3l-0.4,2.2c0,0.1,0,0.2,0,0.4c0,0.1,0.1,0.2,0.2,0.3c0.1,0.1,0.2,0.1,0.3,0.1s0.2,0,0.4-0.1l2-1
	c0.1-0.1,0.2-0.1,0.3-0.1C9.64,15.26,9.84,15.26,9.94,15.36z"/>
<path class="st5" d="M8.84,13.66l2,1c0.1,0.1,0.2,0.1,0.4,0.1c0.1,0,0.2-0.1,0.3-0.1c0.1-0.1,0.2-0.2,0.2-0.3s0.1-0.2,0-0.4
	l-0.4-2.2c0-0.1,0-0.2,0-0.3s0.1-0.2,0.2-0.3l1.6-1.6c0.1-0.1,0.2-0.2,0.2-0.3s0-0.2,0-0.4c0-0.1-0.1-0.2-0.2-0.3
	c-0.1-0.1-0.2-0.1-0.3-0.1l-2.2-0.3c-0.1,0-0.2-0.1-0.3-0.1s-0.2-0.1-0.2-0.2l-1-2c-0.1-0.1-0.1-0.2-0.2-0.3
	c-0.1-0.1-0.2-0.1-0.3-0.1s-0.2,0-0.3,0.1s-0.2,0.2-0.2,0.3l-1,2c0,0.1-0.1,0.2-0.2,0.2c-0.1,0.1-0.2,0.1-0.3,0.1l-2.2,0.3
	c-0.1,0-0.2,0.1-0.3,0.1c-0.1,0.1-0.2,0.2-0.2,0.3s0,0.2,0,0.4c0,0.1,0.1,0.2,0.2,0.3l1.6,1.6c0.1,0.1,0.1,0.2,0.2,0.3
	c0,0.1,0,0.2,0,0.3l-0.4,2.2c0,0.1,0,0.2,0,0.4c0,0.1,0.1,0.2,0.2,0.3c0.1,0.1,0.2,0.1,0.3,0.1s0.2,0,0.4-0.1l2-1
	c0.1-0.1,0.2-0.1,0.3-0.1C8.64,13.66,8.74,13.66,8.84,13.66z"/>
<path class="st2" d="M5.54,12.96l2-1.1c0.1-0.1,0.3-0.1,0.4-0.1c0.2,0,0.3,0,0.4,0.1l2.8,1.5c0.2,0.1,0.4,0.1,0.5,0.1l0.1,0.6
	c0,0.1,0,0.2,0,0.4c0,0.1-0.1,0.2-0.2,0.3c-0.1,0.1-0.2,0.1-0.3,0.1s-0.2,0-0.4-0.1l-2-1c-0.1,0-0.2-0.1-0.3-0.1s-0.2,0-0.3,0.1
	l-2,1c-0.1,0.1-0.2,0.1-0.4,0.1c-0.1,0-0.3,0-0.4-0.1c-0.1-0.1-0.2-0.2-0.2-0.3s-0.1-0.2,0-0.4L5.54,12.96z"/>
<path class="st3" d="M8.84,13.66l2,1c0.1,0.1,0.2,0.1,0.4,0.1c0.1,0,0.2-0.1,0.3-0.1c0.1-0.1,0.2-0.2,0.2-0.3s0.1-0.2,0-0.4
	l-0.4-2.2c0-0.1,0-0.2,0-0.3s0.1-0.2,0.2-0.3l1.6-1.6c0.1-0.1,0.2-0.2,0.2-0.3s0-0.2,0-0.4c0-0.1-0.1-0.2-0.2-0.3
	c-0.1-0.1-0.2-0.1-0.3-0.1l-2.2-0.3c-0.1,0-0.2-0.1-0.3-0.1s-0.2-0.1-0.2-0.2l-1-2c-0.1-0.1-0.1-0.2-0.2-0.3
	c-0.1-0.1-0.2-0.1-0.3-0.1s-0.2,0-0.3,0.1s-0.2,0.2-0.2,0.3l-1,2c0,0.1-0.1,0.2-0.2,0.2c-0.1,0.1-0.2,0.1-0.3,0.1l-2.2,0.3
	c-0.1,0-0.2,0.1-0.3,0.1c-0.1,0.1-0.2,0.2-0.2,0.3s0,0.2,0,0.4c0,0.1,0.1,0.2,0.2,0.3l1.6,1.6c0.1,0.1,0.1,0.2,0.2,0.3
	c0,0.1,0,0.2,0,0.3l-0.4,2.2c0,0.1,0,0.2,0,0.4c0,0.1,0.1,0.2,0.2,0.3c0.1,0.1,0.2,0.1,0.3,0.1s0.2,0,0.4-0.1l2-1
	c0.1-0.1,0.2-0.1,0.3-0.1C8.64,13.66,8.74,13.66,8.84,13.66z"/>
<path class="st6" d="M15.24,26.26c1.7,0,3.4-0.6,4.7-1.7s2.2-2.7,2.5-4.4c0-0.1,0-0.2,0-0.3c0-0.1-0.1-0.2-0.2-0.3
	c-0.1-0.1-0.2-0.1-0.3-0.2c-0.1,0-0.2,0-0.3,0c-4.2,0.7-8.6,0.7-12.8,0c-0.1,0-0.2,0-0.3,0s-0.2,0.1-0.3,0.2s-0.1,0.2-0.2,0.3
	c0,0.1,0,0.2,0,0.3c0.3,1.7,1.2,3.3,2.5,4.4C11.84,25.76,13.54,26.26,15.24,26.26z"/>
<path class="st7" d="M21.84,22.36c-2.1,0.7-4.3,1-6.6,1c-2.2,0-4.4-0.3-6.6-1"/>
<path class="st3" d="M21.84,22.36c-2.1,0.7-4.3,1-6.6,1c-2.2,0-4.4-0.3-6.6-1"/>
<path class="st3" d="M15.24,20.06v6.2"/>
<path class="st3" d="M10.94,19.86c0,0.4,0,3.8,0.7,5.6"/>
<path class="st3" d="M19.54,19.86c0,0.4,0,3.8-0.7,5.6"/>
</svg>
