<svg width="10" height="10" viewBox="0 0 24 24" fill="none" xmlns="http://www.w3.org/2000/svg">
  <path fill-rule="evenodd" clip-rule="evenodd" d="M2.99477 5.46403L11.846 10.7597L11.8461 10.7597C12.3246 11.0461 12.5358 11.5487 12.5358 12.0033C12.5358 12.4579 12.3246 12.9605 11.8461 13.2468L11.846 13.2469L2.99317 18.5435C2.47857 18.8519 1.89337 18.7972 1.45847 18.5148C1.02953 18.2362 0.75 17.7442 0.75 17.1806V6.82125C0.75 6.25793 1.02937 5.76519 1.45968 5.48689C1.89594 5.20474 2.48152 5.15313 2.99477 5.46403ZM2.25804 6.77122C2.2539 6.78201 2.25 6.79817 2.25 6.82125V17.1806C2.25 17.2064 2.25488 17.2236 2.25957 17.2344L11.003 12.0033L2.25804 6.77122Z" fill="#6739E9"/>
  <path fill-rule="evenodd" clip-rule="evenodd" d="M13.7089 5.46396L22.5602 10.7597L22.5603 10.7597C23.0388 11.0461 23.25 11.5487 23.25 12.0033C23.25 12.4579 23.0388 12.9605 22.5603 13.2468L22.5602 13.2469L13.7074 18.5435C13.1928 18.8519 12.6076 18.7972 12.1727 18.5148C11.7438 18.2362 11.4642 17.7442 11.4642 17.1806V6.82125C11.4642 6.25816 11.7433 5.76535 12.1737 5.48694C12.6101 5.2046 13.1956 5.15327 13.7089 5.46396ZM12.9722 6.7712C12.9681 6.78201 12.9642 6.79818 12.9642 6.82125V17.1806C12.9642 17.2064 12.9691 17.2236 12.9738 17.2344L21.7172 12.0033L12.9722 6.7712Z" fill="#6739E9"/>
</svg>
