<svg width="33" height="33" viewBox="0 0 33 33" fill="none" xmlns="http://www.w3.org/2000/svg">
<path d="M3.37781 14.8597C3.37781 18.34 4.76032 21.6776 7.22122 24.1385C9.68211 26.5994 13.0198 27.9819 16.5 27.9819C19.9803 27.9819 23.3179 26.5994 25.7788 24.1385C28.2397 21.6776 29.6223 18.34 29.6223 14.8597C29.6223 11.3795 28.2397 8.04181 25.7788 5.58091C23.3179 3.12002 19.9803 1.7375 16.5 1.7375C13.0198 1.7375 9.68211 3.12002 7.22122 5.58091C4.76032 8.04181 3.37781 11.3795 3.37781 14.8597Z" fill="#FFE500"/>
<path d="M16.5 1.7375C13.9047 1.7375 11.3677 2.50711 9.20972 3.949C7.05178 5.39088 5.36987 7.4403 4.37668 9.83807C3.38349 12.2358 3.12363 14.8743 3.62995 17.4197C4.13628 19.9652 5.38605 22.3034 7.22122 24.1385C9.0564 25.9737 11.3946 27.2235 13.94 27.7298C16.4855 28.2361 19.1239 27.9763 21.5217 26.9831C23.9195 25.9899 25.9689 24.308 27.4108 22.15C28.8527 19.9921 29.6223 17.4551 29.6223 14.8597C29.6223 11.3795 28.2397 8.04181 25.7788 5.58091C23.318 3.12002 19.9803 1.7375 16.5 1.7375ZM16.5 26.0136C14.1318 26.0136 11.8167 25.3113 9.84762 23.9956C7.8785 22.6799 6.34376 20.8098 5.43748 18.6218C4.53119 16.4339 4.29406 14.0263 4.75609 11.7036C5.21811 9.38084 6.35852 7.24727 8.03312 5.57267C9.70772 3.89807 11.8413 2.75766 14.164 2.29564C16.4868 1.83362 18.8943 2.07074 21.0823 2.97703C23.2703 3.88331 25.1404 5.41805 26.4561 7.38717C27.7718 9.35629 28.4741 11.6713 28.4741 14.0396C28.4741 17.2153 27.2125 20.2609 24.967 22.5065C22.7214 24.7521 19.6757 26.0136 16.5 26.0136Z" fill="#EBCB00"/>
<path d="M12.5634 4.36194C12.5634 4.62296 12.9781 4.87329 13.7164 5.05785C14.4546 5.24242 15.456 5.34611 16.5 5.34611C17.5441 5.34611 18.5454 5.24242 19.2837 5.05785C20.0219 4.87329 20.4367 4.62296 20.4367 4.36194C20.4367 4.10093 20.0219 3.8506 19.2837 3.66603C18.5454 3.48147 17.5441 3.37778 16.5 3.37778C15.456 3.37778 14.4546 3.48147 13.7164 3.66603C12.9781 3.8506 12.5634 4.10093 12.5634 4.36194Z" fill="#FFF48C"/>
<path d="M3.37781 14.8597C3.37781 18.34 4.76032 21.6776 7.22122 24.1385C9.68211 26.5994 13.0198 27.9819 16.5 27.9819C19.9803 27.9819 23.3179 26.5994 25.7788 24.1385C28.2397 21.6776 29.6223 18.34 29.6223 14.8597C29.6223 11.3795 28.2397 8.04181 25.7788 5.58091C23.3179 3.12002 19.9803 1.7375 16.5 1.7375C13.0198 1.7375 9.68211 3.12002 7.22122 5.58091C4.76032 8.04181 3.37781 11.3795 3.37781 14.8597Z" stroke="#45413C" stroke-width="0.38" stroke-linecap="round" stroke-linejoin="round"/>
<path d="M26.0136 18.1403C26.0136 18.6849 25.2787 19.1244 24.3733 19.1244C23.4679 19.1244 22.733 18.6849 22.733 18.1403C22.733 17.5957 23.4679 17.1561 24.3733 17.1561C25.2787 17.1561 26.0136 17.5957 26.0136 18.1403Z" fill="#FFAA54"/>
<path d="M6.98633 18.1403C6.98633 18.6849 7.72117 19.1244 8.62661 19.1244C9.53204 19.1244 10.2669 18.6849 10.2669 18.1403C10.2669 17.5957 9.53204 17.1561 8.62661 17.1561C7.72117 17.1561 6.98633 17.5957 6.98633 18.1403Z" fill="#FFAA54"/>
<path d="M21.8342 15.05L19.8659 16.0932C19.7577 16.1498 19.636 16.1751 19.5143 16.1662C19.3926 16.1574 19.2758 16.1148 19.1769 16.0433C19.0781 15.9717 19.0012 15.874 18.9548 15.7611C18.9085 15.6482 18.8945 15.5247 18.9145 15.4043L19.2754 13.2194C19.2937 13.114 19.2859 13.0056 19.2528 12.9038C19.2196 12.8021 19.162 12.7099 19.0851 12.6355L17.4776 11.074C17.385 10.989 17.3188 10.8792 17.2868 10.7577C17.2548 10.6362 17.2583 10.5081 17.297 10.3885C17.3357 10.2689 17.4079 10.163 17.5051 10.0833C17.6022 10.0036 17.7202 9.95348 17.845 9.93889L20.0627 9.61739C20.1678 9.60161 20.2675 9.56051 20.3532 9.49765C20.439 9.43479 20.5081 9.35204 20.5548 9.25653L21.5521 7.22915C21.6065 7.11997 21.6903 7.02812 21.794 6.96392C21.8977 6.89972 22.0173 6.86571 22.1393 6.86571C22.2613 6.86571 22.3809 6.89972 22.4846 6.96392C22.5883 7.02812 22.6721 7.11997 22.7265 7.22915L23.7172 9.24341C23.7639 9.33892 23.8331 9.42167 23.9188 9.48453C24.0045 9.54739 24.1042 9.58848 24.2093 9.60427L26.427 9.92577C26.549 9.94238 26.6639 9.99301 26.7585 10.0719C26.8532 10.1507 26.9237 10.2546 26.962 10.3717C27.0003 10.4887 27.005 10.6142 26.9753 10.7338C26.9457 10.8533 26.883 10.9621 26.7944 11.0477L25.1869 12.6093C25.1116 12.6896 25.0577 12.7876 25.0301 12.8942C25.0026 13.0008 25.0024 13.1127 25.0295 13.2194L25.41 15.4305C25.43 15.5509 25.416 15.6745 25.3697 15.7873C25.3233 15.9002 25.2464 15.9979 25.1476 16.0695C25.0488 16.1411 24.9319 16.1837 24.8102 16.1925C24.6885 16.2013 24.5668 16.176 24.4586 16.1195L22.4903 15.0762C22.3929 15.0146 22.281 14.9797 22.1658 14.9751C22.0506 14.9705 21.9362 14.9963 21.8342 15.05Z" fill="#EBCB00"/>
<path d="M22.8578 13.4491L20.8894 14.4923C20.7813 14.5489 20.6595 14.5741 20.5378 14.5653C20.4161 14.5565 20.2993 14.5139 20.2005 14.4423C20.1017 14.3708 20.0247 14.2731 19.9784 14.1602C19.932 14.0473 19.9181 13.9238 19.9381 13.8034L20.312 11.5923C20.3312 11.4874 20.3245 11.3793 20.2925 11.2776C20.2605 11.1758 20.2041 11.0834 20.1283 11.0083L18.5209 9.4468C18.4324 9.36164 18.3696 9.25337 18.3397 9.13431C18.3097 9.01524 18.3137 8.89015 18.3513 8.77327C18.3889 8.65639 18.4586 8.5524 18.5523 8.47313C18.6461 8.39386 18.7602 8.34248 18.8817 8.32485L21.0928 8.00336C21.1979 7.98757 21.2976 7.94648 21.3834 7.88362C21.4691 7.82076 21.5382 7.73801 21.5849 7.6425L22.5756 5.62824C22.6294 5.51731 22.7132 5.42375 22.8177 5.3583C22.9221 5.29284 23.0429 5.25812 23.1661 5.25812C23.2894 5.25812 23.4101 5.29284 23.5146 5.3583C23.619 5.42375 23.7029 5.51731 23.7566 5.62824L24.7474 7.6425C24.794 7.73801 24.8632 7.82076 24.9489 7.88362C25.0346 7.94648 25.1343 7.98757 25.2394 8.00336L27.4637 8.32485C27.5852 8.34248 27.6993 8.39386 27.793 8.47313C27.8868 8.5524 27.9564 8.65639 27.994 8.77327C28.0316 8.89015 28.0357 9.01524 28.0057 9.13431C27.9757 9.25337 27.913 9.36164 27.8245 9.4468L26.217 11.0083C26.1401 11.0828 26.0825 11.1749 26.0494 11.2767C26.0162 11.3785 26.0084 11.4868 26.0268 11.5923L26.4073 13.8034C26.4273 13.9238 26.4134 14.0473 26.367 14.1602C26.3206 14.2731 26.2437 14.3708 26.1449 14.4423C26.0461 14.5139 25.9292 14.5565 25.8075 14.5653C25.6858 14.5741 25.5641 14.5489 25.456 14.4923L23.4876 13.4491C23.3911 13.3962 23.2828 13.3686 23.1727 13.3686C23.0626 13.3686 22.9543 13.3962 22.8578 13.4491Z" fill="#FFFACF"/>
<path d="M26.217 12.6946L24.2093 11.6382C24.0773 11.567 23.9296 11.5297 23.7795 11.5297C23.6295 11.5297 23.4818 11.567 23.3498 11.6382L20.5613 13.1013C20.3976 13.1923 20.2092 13.2291 20.0233 13.2063L19.9183 13.8034C19.8974 13.9246 19.9111 14.0493 19.9577 14.1632C20.0043 14.2771 20.0819 14.3756 20.1818 14.4474C20.2817 14.5193 20.3998 14.5616 20.5226 14.5695C20.6454 14.5774 20.7679 14.5507 20.8763 14.4923L22.8446 13.4491C22.9387 13.3997 23.0434 13.3738 23.1497 13.3738C23.256 13.3738 23.3607 13.3997 23.4548 13.4491L25.4231 14.4923C25.5312 14.5489 25.653 14.5741 25.7747 14.5653C25.8964 14.5565 26.0132 14.5139 26.112 14.4423C26.2109 14.3708 26.2878 14.2731 26.3342 14.1602C26.3805 14.0473 26.3945 13.9238 26.3745 13.8034L26.217 12.6946Z" fill="#FFF48C"/>
<path d="M22.8578 13.4491L20.8894 14.4923C20.7813 14.5489 20.6595 14.5741 20.5378 14.5653C20.4161 14.5565 20.2993 14.5139 20.2005 14.4423C20.1017 14.3708 20.0247 14.2731 19.9784 14.1602C19.932 14.0473 19.9181 13.9238 19.9381 13.8034L20.312 11.5923C20.3312 11.4874 20.3245 11.3793 20.2925 11.2776C20.2605 11.1758 20.2041 11.0834 20.1283 11.0083L18.5209 9.4468C18.4324 9.36164 18.3696 9.25337 18.3397 9.13431C18.3097 9.01524 18.3137 8.89015 18.3513 8.77327C18.3889 8.65639 18.4586 8.5524 18.5523 8.47313C18.6461 8.39386 18.7602 8.34248 18.8817 8.32485L21.0928 8.00336C21.1979 7.98757 21.2976 7.94648 21.3834 7.88362C21.4691 7.82076 21.5382 7.73801 21.5849 7.6425L22.5756 5.62824C22.6294 5.51731 22.7132 5.42375 22.8177 5.3583C22.9221 5.29284 23.0429 5.25812 23.1661 5.25812C23.2894 5.25812 23.4101 5.29284 23.5146 5.3583C23.619 5.42375 23.7029 5.51731 23.7566 5.62824L24.7474 7.6425C24.794 7.73801 24.8632 7.82076 24.9489 7.88362C25.0346 7.94648 25.1343 7.98757 25.2394 8.00336L27.4637 8.32485C27.5852 8.34248 27.6993 8.39386 27.793 8.47313C27.8868 8.5524 27.9564 8.65639 27.994 8.77327C28.0316 8.89015 28.0357 9.01524 28.0057 9.13431C27.9757 9.25337 27.913 9.36164 27.8245 9.4468L26.217 11.0083C26.1401 11.0828 26.0825 11.1749 26.0494 11.2767C26.0162 11.3785 26.0084 11.4868 26.0268 11.5923L26.4073 13.8034C26.4273 13.9238 26.4134 14.0473 26.367 14.1602C26.3206 14.2731 26.2437 14.3708 26.1449 14.4423C26.0461 14.5139 25.9292 14.5565 25.8075 14.5653C25.6858 14.5741 25.5641 14.5489 25.456 14.4923L23.4876 13.4491C23.3911 13.3962 23.2828 13.3686 23.1727 13.3686C23.0626 13.3686 22.9543 13.3962 22.8578 13.4491Z" stroke="#45413C" stroke-width="0.38" stroke-linecap="round" stroke-linejoin="round"/>
<path d="M11.1659 15.05L13.1342 16.0932C13.2423 16.1498 13.3641 16.1751 13.4858 16.1662C13.6075 16.1574 13.7243 16.1148 13.8231 16.0433C13.922 15.9717 13.9989 15.874 14.0452 15.7611C14.0916 15.6482 14.1056 15.5247 14.0856 15.4043L13.7247 13.2194C13.7064 13.114 13.7141 13.0056 13.7473 12.9038C13.7805 12.8021 13.838 12.7099 13.915 12.6355L15.5224 11.074C15.6143 10.9911 15.6809 10.884 15.7146 10.7649C15.7482 10.6459 15.7475 10.5197 15.7125 10.4011C15.6775 10.2824 15.6097 10.176 15.5169 10.0943C15.424 10.0125 15.31 9.95862 15.1878 9.93889L12.9702 9.61739C12.865 9.60161 12.7653 9.56051 12.6796 9.49765C12.5939 9.43479 12.5247 9.35204 12.4781 9.25653L11.448 7.22915C11.3936 7.11997 11.3098 7.02812 11.2061 6.96392C11.1023 6.89972 10.9828 6.86571 10.8608 6.86571C10.7388 6.86571 10.6192 6.89972 10.5155 6.96392C10.4117 7.02812 10.328 7.11997 10.2736 7.22915L9.28282 9.24341C9.23617 9.33892 9.16701 9.42167 9.08129 9.48453C8.99557 9.54739 8.89586 9.58848 8.79074 9.60427L6.56652 9.93889C6.44448 9.9555 6.32957 10.0061 6.23495 10.085C6.14033 10.1639 6.06982 10.2678 6.03149 10.3848C5.99315 10.5019 5.98854 10.6273 6.01818 10.7469C6.04783 10.8665 6.11052 10.9752 6.1991 11.0608L7.80657 12.6224C7.88095 12.7007 7.93483 12.7962 7.96345 12.9003C7.99206 13.0045 7.99452 13.1141 7.9706 13.2194L7.59006 15.4305C7.57006 15.5509 7.58402 15.6745 7.63037 15.7873C7.67673 15.9002 7.75365 15.9979 7.85248 16.0695C7.95131 16.1411 8.06814 16.1837 8.18984 16.1925C8.31154 16.2013 8.4333 16.176 8.54142 16.1195L10.5098 15.0762C10.6072 15.0146 10.7191 14.9797 10.8343 14.9751C10.9495 14.9705 11.0638 14.9963 11.1659 15.05Z" fill="#EBCB00"/>
<path d="M10.1423 13.4491L12.1106 14.4923C12.2187 14.5489 12.3405 14.5741 12.4622 14.5653C12.5839 14.5565 12.7007 14.5139 12.7996 14.4423C12.8984 14.3708 12.9753 14.2731 13.0217 14.1602C13.068 14.0473 13.082 13.9238 13.062 13.8034L12.688 11.5923C12.6688 11.4874 12.6756 11.3793 12.7076 11.2776C12.7396 11.1758 12.7959 11.0834 12.8717 11.0083L14.4792 9.4468C14.5676 9.36164 14.6304 9.25337 14.6604 9.13431C14.6903 9.01524 14.6863 8.89015 14.6487 8.77327C14.6111 8.65639 14.5415 8.5524 14.4477 8.47313C14.3539 8.39386 14.2398 8.34248 14.1183 8.32485L11.9072 8.00336C11.8021 7.98757 11.7024 7.94648 11.6167 7.88362C11.531 7.82076 11.4618 7.73801 11.4151 7.6425L10.4244 5.62824C10.3707 5.51731 10.2868 5.42375 10.1824 5.3583C10.0779 5.29284 9.95717 5.25812 9.83391 5.25812C9.71066 5.25812 9.58989 5.29284 9.48546 5.3583C9.38102 5.42375 9.29714 5.51731 9.24341 5.62824L8.25268 7.6425C8.20603 7.73801 8.13687 7.82076 8.05115 7.88362C7.96543 7.94648 7.86572 7.98757 7.7606 8.00336L5.53638 8.32485C5.41488 8.34248 5.30075 8.39386 5.20699 8.47313C5.11323 8.5524 5.04359 8.65639 5.006 8.77327C4.96841 8.89015 4.96436 9.01524 4.99433 9.13431C5.0243 9.25337 5.08708 9.36164 5.17552 9.4468L6.78299 11.0083C6.85994 11.0828 6.91751 11.1749 6.95067 11.2767C6.98384 11.3785 6.9916 11.4868 6.97327 11.5923L6.59272 13.8034C6.57272 13.9238 6.58668 14.0473 6.63304 14.1602C6.6794 14.2731 6.75631 14.3708 6.85514 14.4423C6.95397 14.5139 7.0708 14.5565 7.19251 14.5653C7.31421 14.5741 7.43596 14.5489 7.54408 14.4923L9.51242 13.4491C9.60898 13.3962 9.71728 13.3686 9.82735 13.3686C9.93742 13.3686 10.0457 13.3962 10.1423 13.4491Z" fill="#FFFACF"/>
<path d="M6.783 12.6946L8.7907 11.6382C8.92275 11.567 9.07042 11.5297 9.22045 11.5297C9.37048 11.5297 9.51815 11.567 9.6502 11.6382L12.4387 13.1013C12.6024 13.1923 12.7908 13.2291 12.9767 13.2063L13.0817 13.8034C13.1026 13.9246 13.0889 14.0493 13.0423 14.1632C12.9957 14.2771 12.9181 14.3756 12.8182 14.4474C12.7183 14.5193 12.6002 14.5616 12.4774 14.5695C12.3546 14.5774 12.2321 14.5507 12.1237 14.4923L10.1554 13.4491C10.0613 13.3997 9.95661 13.3738 9.85032 13.3738C9.74402 13.3738 9.63933 13.3997 9.54522 13.4491L7.57689 14.4923C7.46803 14.5584 7.34227 14.5915 7.21496 14.5873C7.08765 14.5832 6.96429 14.5421 6.85993 14.4691C6.75558 14.396 6.67475 14.2942 6.6273 14.176C6.57985 14.0578 6.56784 13.9283 6.59272 13.8034L6.783 12.6946Z" fill="#FFF48C"/>
<path d="M10.1423 13.4491L12.1106 14.4923C12.2187 14.5489 12.3405 14.5741 12.4622 14.5653C12.5839 14.5565 12.7007 14.5139 12.7996 14.4423C12.8984 14.3708 12.9753 14.2731 13.0217 14.1602C13.068 14.0473 13.082 13.9238 13.062 13.8034L12.688 11.5923C12.6688 11.4874 12.6756 11.3793 12.7076 11.2776C12.7396 11.1758 12.7959 11.0834 12.8717 11.0083L14.4792 9.4468C14.5676 9.36164 14.6304 9.25337 14.6604 9.13431C14.6903 9.01524 14.6863 8.89015 14.6487 8.77327C14.6111 8.65639 14.5415 8.5524 14.4477 8.47313C14.3539 8.39386 14.2398 8.34248 14.1183 8.32485L11.9072 8.00336C11.8021 7.98757 11.7024 7.94648 11.6167 7.88362C11.531 7.82076 11.4618 7.73801 11.4151 7.6425L10.4244 5.62824C10.3707 5.51731 10.2868 5.42375 10.1824 5.3583C10.0779 5.29284 9.95717 5.25812 9.83391 5.25812C9.71066 5.25812 9.58989 5.29284 9.48546 5.3583C9.38102 5.42375 9.29714 5.51731 9.24341 5.62824L8.25268 7.6425C8.20603 7.73801 8.13687 7.82076 8.05115 7.88362C7.96543 7.94648 7.86572 7.98757 7.7606 8.00336L5.53638 8.32485C5.41488 8.34248 5.30075 8.39386 5.20699 8.47313C5.11323 8.5524 5.04359 8.65639 5.006 8.77327C4.96841 8.89015 4.96436 9.01524 4.99433 9.13431C5.0243 9.25337 5.08708 9.36164 5.17552 9.4468L6.78299 11.0083C6.85994 11.0828 6.91751 11.1749 6.95067 11.2767C6.98384 11.3785 6.9916 11.4868 6.97327 11.5923L6.59272 13.8034C6.57272 13.9238 6.58668 14.0473 6.63304 14.1602C6.6794 14.2731 6.75631 14.3708 6.85514 14.4423C6.95397 14.5139 7.0708 14.5565 7.19251 14.5653C7.31421 14.5741 7.43596 14.5489 7.54408 14.4923L9.51242 13.4491C9.60898 13.3962 9.71728 13.3686 9.82735 13.3686C9.93742 13.3686 10.0457 13.3962 10.1423 13.4491Z" stroke="#45413C" stroke-width="0.38" stroke-linecap="round" stroke-linejoin="round"/>
<path d="M16.5 26.0136C18.2267 26.0513 19.9087 25.4628 21.2353 24.3569C22.5619 23.251 23.4435 21.7024 23.7172 19.9971C23.7285 19.8957 23.7159 19.7931 23.6806 19.6975C23.6453 19.6018 23.5882 19.5157 23.5138 19.4459C23.4333 19.3745 23.3381 19.3216 23.235 19.291C23.1318 19.2604 23.0232 19.2528 22.9167 19.2688C18.6705 19.9511 14.3426 19.9511 10.0963 19.2688C9.98992 19.2528 9.88128 19.2604 9.77811 19.291C9.67494 19.3216 9.57975 19.3745 9.49928 19.4459C9.42488 19.5157 9.36776 19.6018 9.33245 19.6975C9.29714 19.7931 9.28462 19.8957 9.29588 19.9971C9.56929 21.7001 10.449 23.2469 11.7728 24.3525C13.0967 25.4582 14.7755 26.0481 16.5 26.0136Z" fill="white" stroke="#45413C" stroke-width="0.38" stroke-linecap="round" stroke-linejoin="round"/>
<path d="M23.0611 22.077C20.945 22.7719 18.7268 23.1046 16.5 23.0611C14.2732 23.1038 12.0551 22.7711 9.93884 22.077" fill="white"/>
<path d="M23.0611 22.077C20.945 22.7719 18.7268 23.1046 16.5 23.0611C14.2732 23.1038 12.0551 22.7711 9.93884 22.077" stroke="#45413C" stroke-width="0.38" stroke-linecap="round" stroke-linejoin="round"/>
<path d="M16.5 19.7805V26.0136" stroke="#45413C" stroke-width="0.38" stroke-linecap="round" stroke-linejoin="round"/>
<path d="M12.2353 19.5575C12.2353 19.9511 12.2025 23.3301 12.9308 25.1279" stroke="#45413C" stroke-width="0.38" stroke-linecap="round" stroke-linejoin="round"/>
<path d="M20.7647 19.5575C20.7647 19.9511 20.7975 23.3301 20.0692 25.1279" stroke="#45413C" stroke-width="0.38" stroke-linecap="round" stroke-linejoin="round"/>
</svg>
