<svg width="92" height="47" viewBox="0 0 92 47" fill="none" xmlns="http://www.w3.org/2000/svg">
<path d="M91.389 46.2626C91.389 34.1512 86.5778 22.5359 78.0138 13.9718C69.4497 5.4078 57.8344 0.596574 45.723 0.596573C33.6116 0.596572 21.9963 5.4078 13.4323 13.9718C4.86824 22.5359 0.0570087 34.1512 0.0570069 46.2626H11.4735C11.4735 37.1791 15.0819 28.4676 21.505 22.0445C27.928 15.6215 36.6395 12.0131 45.723 12.0131C54.8066 12.0131 63.5181 15.6215 69.9411 22.0445C76.3641 28.4676 79.9725 37.1791 79.9725 46.2626H91.389Z" fill="#DB0062"/>
<path d="M23.6061 6.30976C16.4506 10.2709 10.4902 16.081 6.34777 23.1331C2.2053 30.1851 0.0327765 38.2203 0.0572107 46.399L11.4737 46.3649C11.4553 40.2309 13.0847 34.2045 16.1916 28.9155C19.2984 23.6264 23.7687 19.2688 29.1354 16.298L23.6061 6.30976Z" fill="#3B8900"/>
<path d="M68.556 6.71466C61.6312 2.71662 53.778 0.606929 45.7819 0.596611C37.7859 0.586293 29.9273 2.67571 22.9922 6.65586L28.6749 16.5575C33.8762 13.5724 39.7702 12.0054 45.7672 12.0131C51.7643 12.0208 57.6542 13.6031 62.8478 16.6016L68.556 6.71466Z" fill="#ECB800"/>
<path d="M78.4608 26.8717L45.0629 45.9525L42.9971 41.7655L78.4608 26.8717Z" fill="#394334"/>
<path d="M45.9109 45.76C44.6543 46.3799 43.1332 45.8638 42.5132 44.6073C41.8933 43.3508 42.4093 41.8296 43.6659 41.2096C44.9224 40.5897 46.4436 41.1058 47.0635 42.3623C47.6835 43.6188 47.1674 45.14 45.9109 45.76Z" fill="#394334"/>
</svg>
