<svg width="92" height="48" viewBox="0 0 92 48" fill="none" xmlns="http://www.w3.org/2000/svg">
<path d="M91.389 46.6331C91.389 34.5217 86.5778 22.9064 78.0138 14.3424C69.4497 5.77832 57.8344 0.967088 45.723 0.967087C33.6116 0.967086 21.9963 5.77831 13.4323 14.3424C4.86824 22.9064 0.0570087 34.5217 0.0570069 46.6331H11.4735C11.4735 37.5496 15.0819 28.8381 21.505 22.415C27.928 15.992 36.6395 12.3836 45.723 12.3836C54.8066 12.3836 63.5181 15.992 69.9411 22.415C76.3641 28.8381 79.9725 37.5496 79.9725 46.6331H91.389Z" fill="#DB0062"/>
<path d="M23.6061 6.68028C16.4506 10.6414 10.4902 16.4515 6.34777 23.5036C2.2053 30.5557 0.0327765 38.5908 0.0572107 46.7695L11.4737 46.7354C11.4553 40.6014 13.0847 34.575 16.1916 29.286C19.2984 23.9969 23.7687 19.6393 29.1354 16.6685L23.6061 6.68028Z" fill="#3B8900"/>
<path d="M68.556 7.08517C61.6312 3.08713 53.778 0.977442 45.7819 0.967125C37.7859 0.956807 29.9273 3.04622 22.9922 7.02638L28.6749 16.9281C33.8762 13.9429 39.7702 12.3759 45.7672 12.3836C51.7643 12.3914 57.6542 13.9736 62.8478 16.9722L68.556 7.08517Z" fill="#ECB800"/>
<path d="M13.3255 25.164L47.7423 42.339L45.4078 46.3823L13.3255 25.164Z" fill="#394334"/>
<path d="M47.1112 41.7407C48.3246 42.4413 48.7404 43.9929 48.0398 45.2063C47.3392 46.4198 45.7876 46.8355 44.5742 46.1349C43.3608 45.4344 42.945 43.8828 43.6456 42.6693C44.3462 41.4559 45.8978 41.0401 47.1112 41.7407Z" fill="#394334"/>
</svg>
