<svg width="92" height="47" viewBox="0 0 92 47" fill="none" xmlns="http://www.w3.org/2000/svg">
<path d="M91.389 46.5485C91.389 34.4371 86.5778 22.8218 78.0138 14.2577C69.4497 5.69369 57.8344 0.882462 45.723 0.882462C33.6116 0.882461 21.9963 5.69369 13.4323 14.2577C4.86824 22.8218 0.0570087 34.4371 0.0570069 46.5485H11.4735C11.4735 37.4649 15.0819 28.7534 21.505 22.3304C27.928 15.9074 36.6395 12.299 45.723 12.299C54.8066 12.299 63.5181 15.9074 69.9411 22.3304C76.3641 28.7534 79.9725 37.4649 79.9725 46.5485H91.389Z" fill="#DB0062"/>
<path d="M23.6061 6.59565C16.4506 10.5568 10.4902 16.3669 6.34777 23.419C2.2053 30.471 0.0327765 38.5062 0.0572107 46.6849L11.4737 46.6508C11.4553 40.5168 13.0847 34.4904 16.1916 29.2013C19.2984 23.9123 23.7687 19.5547 29.1354 16.5839L23.6061 6.59565Z" fill="#3B8900"/>
<path d="M68.556 7.00055C61.6312 3.00251 53.778 0.892817 45.7819 0.8825C37.7859 0.872182 29.9273 2.9616 22.9922 6.94175L28.6749 16.8434C33.8762 13.8583 39.7702 12.2913 45.7672 12.299C51.7643 12.3067 57.6542 13.889 62.8478 16.8875L68.556 7.00055Z" fill="#ECB800"/>
<path d="M46.594 6.88246L48.9284 45.2757H44.2596L46.594 6.88246Z" fill="#394334"/>
<path d="M49.131 44.4301C49.131 45.8312 47.9952 46.9671 46.594 46.9671C45.1929 46.9671 44.057 45.8312 44.057 44.4301C44.057 43.0289 45.1929 41.8931 46.594 41.8931C47.9952 41.8931 49.131 43.0289 49.131 44.4301Z" fill="#394334"/>
</svg>
