<svg width="35" height="32" viewBox="0 0 35 32" fill="none" xmlns="http://www.w3.org/2000/svg">
<path d="M4.37781 14.3597C4.37781 17.84 5.76032 21.1776 8.22122 23.6385C10.6821 26.0994 14.0198 27.4819 17.5 27.4819C20.9803 27.4819 24.3179 26.0994 26.7788 23.6385C29.2397 21.1776 30.6223 17.84 30.6223 14.3597C30.6223 10.8795 29.2397 7.54181 26.7788 5.08091C24.3179 2.62002 20.9803 1.2375 17.5 1.2375C14.0198 1.2375 10.6821 2.62002 8.22122 5.08091C5.76032 7.54181 4.37781 10.8795 4.37781 14.3597Z" fill="#FFE500"/>
<path d="M17.5 1.2375C14.9047 1.2375 12.3677 2.00711 10.2097 3.449C8.05178 4.89088 6.36987 6.9403 5.37668 9.33807C4.38349 11.7358 4.12363 14.3743 4.62995 16.9197C5.13628 19.4652 6.38605 21.8034 8.22122 23.6385C10.0564 25.4737 12.3946 26.7235 14.94 27.2298C17.4855 27.7361 20.1239 27.4763 22.5217 26.4831C24.9195 25.4899 26.9689 23.808 28.4108 21.65C29.8527 19.4921 30.6223 16.9551 30.6223 14.3597C30.6223 10.8795 29.2397 7.54181 26.7788 5.08091C24.318 2.62002 20.9803 1.2375 17.5 1.2375ZM17.5 25.5136C15.1318 25.5136 12.8167 24.8113 10.8476 23.4956C8.8785 22.1799 7.34376 20.3098 6.43748 18.1218C5.53119 15.9339 5.29406 13.5263 5.75609 11.2036C6.21811 8.88084 7.35852 6.74727 9.03312 5.07267C10.7077 3.39807 12.8413 2.25766 15.164 1.79564C17.4868 1.33362 19.8943 1.57074 22.0823 2.47703C24.2703 3.38331 26.1404 4.91805 27.4561 6.88717C28.7718 8.85629 29.4741 11.1713 29.4741 13.5396C29.4741 16.7153 28.2125 19.7609 25.967 22.0065C23.7214 24.2521 20.6757 25.5136 17.5 25.5136Z" fill="#EBCB00"/>
<path d="M13.5634 3.86194C13.5634 4.12296 13.9781 4.37329 14.7164 4.55785C15.4546 4.74242 16.456 4.84611 17.5 4.84611C18.5441 4.84611 19.5454 4.74242 20.2837 4.55785C21.0219 4.37329 21.4367 4.12296 21.4367 3.86194C21.4367 3.60093 21.0219 3.3506 20.2837 3.16603C19.5454 2.98147 18.5441 2.87778 17.5 2.87778C16.456 2.87778 15.4546 2.98147 14.7164 3.16603C13.9781 3.3506 13.5634 3.60093 13.5634 3.86194Z" fill="#FFF48C"/>
<path d="M4.37781 14.3597C4.37781 17.84 5.76032 21.1776 8.22122 23.6385C10.6821 26.0994 14.0198 27.4819 17.5 27.4819C20.9803 27.4819 24.3179 26.0994 26.7788 23.6385C29.2397 21.1776 30.6223 17.84 30.6223 14.3597C30.6223 10.8795 29.2397 7.54181 26.7788 5.08091C24.3179 2.62002 20.9803 1.2375 17.5 1.2375C14.0198 1.2375 10.6821 2.62002 8.22122 5.08091C5.76032 7.54181 4.37781 10.8795 4.37781 14.3597Z" stroke="#45413C" stroke-width="0.38" stroke-linecap="round" stroke-linejoin="round"/>
<path d="M27.0136 17.6403C27.0136 18.1849 26.2787 18.6244 25.3733 18.6244C24.4679 18.6244 23.733 18.1849 23.733 17.6403C23.733 17.0957 24.4679 16.6561 25.3733 16.6561C26.2787 16.6561 27.0136 17.0957 27.0136 17.6403Z" fill="#FFAA54"/>
<path d="M7.98633 17.6403C7.98633 18.1849 8.72117 18.6244 9.62661 18.6244C10.532 18.6244 11.2669 18.1849 11.2669 17.6403C11.2669 17.0957 10.532 16.6561 9.62661 16.6561C8.72117 16.6561 7.98633 17.0957 7.98633 17.6403Z" fill="#FFAA54"/>
<path d="M11.2669 13.7036C11.2669 13.8334 11.2285 13.9602 11.1564 14.0681C11.0843 14.176 10.9818 14.2601 10.8619 14.3098C10.742 14.3594 10.6101 14.3724 10.4828 14.3471C10.3555 14.3218 10.2386 14.2593 10.1469 14.1676C10.0551 14.0758 9.99264 13.9589 9.96732 13.8316C9.942 13.7043 9.955 13.5724 10.0047 13.4525C10.0543 13.3326 10.1384 13.2302 10.2463 13.1581C10.3542 13.086 10.4811 13.0475 10.6108 13.0475C10.7848 13.0475 10.9517 13.1166 11.0748 13.2397C11.1978 13.3627 11.2669 13.5296 11.2669 13.7036Z" fill="#45413C" stroke="#45413C" stroke-width="0.38" stroke-linecap="round" stroke-linejoin="round"/>
<path d="M23.733 13.0475C23.733 13.5921 24.0283 14.0317 24.3891 14.0317C24.75 14.0317 25.0453 13.5921 25.0453 13.0475C25.0453 12.5029 24.75 12.0633 24.3891 12.0633C24.0283 12.0633 23.733 12.5029 23.733 13.0475Z" fill="#45413C" stroke="#45413C" stroke-width="0.38" stroke-linecap="round" stroke-linejoin="round"/>
<path d="M13.8914 18.2964H21.1086" stroke="#45413C" stroke-width="0.38" stroke-linecap="round" stroke-linejoin="round"/>
<path d="M22.6373 9.76694C22.7765 9.40572 23.0147 9.09103 23.3246 8.85895C23.6344 8.62686 24.0034 8.48676 24.3891 8.45472C24.7749 8.48676 25.1439 8.62686 25.4537 8.85895C25.7636 9.09103 26.0017 9.40572 26.141 9.76694" stroke="#45413C" stroke-width="0.38" stroke-linecap="round" stroke-linejoin="round"/>
<path d="M8.68848 11.4597C9.26116 11.814 9.91251 12.0214 10.5846 12.0633C11.2454 12.2119 11.9325 12.1962 12.5858 12.0174" stroke="#45413C" stroke-width="0.38" stroke-linecap="round" stroke-linejoin="round"/>
</svg>
