<svg width="33" height="32" viewBox="0 0 33 32" fill="none" xmlns="http://www.w3.org/2000/svg">
<path d="M3.37781 14.3597C3.37781 17.84 4.76032 21.1776 7.22122 23.6385C9.68211 26.0994 13.0198 27.4819 16.5 27.4819C19.9803 27.4819 23.3179 26.0994 25.7788 23.6385C28.2397 21.1776 29.6223 17.84 29.6223 14.3597C29.6223 10.8795 28.2397 7.5418 25.7788 5.08091C23.3179 2.62002 19.9803 1.2375 16.5 1.2375C13.0198 1.2375 9.68211 2.62002 7.22122 5.08091C4.76032 7.5418 3.37781 10.8795 3.37781 14.3597Z" fill="#FFE500"/>
<path d="M16.5 1.2375C13.9047 1.2375 11.3677 2.0071 9.20972 3.44899C7.05178 4.89088 5.36987 6.94029 4.37668 9.33806C3.38349 11.7358 3.12363 14.3743 3.62995 16.9197C4.13628 19.4652 5.38605 21.8034 7.22122 23.6385C9.0564 25.4737 11.3946 26.7235 13.94 27.2298C16.4855 27.7361 19.1239 27.4763 21.5217 26.4831C23.9195 25.4899 25.9689 23.808 27.4108 21.65C28.8527 19.4921 29.6223 16.9551 29.6223 14.3597C29.6223 10.8795 28.2397 7.5418 25.7788 5.08091C23.318 2.62001 19.9803 1.2375 16.5 1.2375ZM16.5 25.5136C14.1318 25.5136 11.8167 24.8113 9.84762 23.4956C7.8785 22.1799 6.34376 20.3098 5.43748 18.1218C4.53119 15.9339 4.29406 13.5263 4.75609 11.2036C5.21811 8.88083 6.35852 6.74726 8.03312 5.07267C9.70772 3.39807 11.8413 2.25765 14.164 1.79563C16.4868 1.33361 18.8943 1.57074 21.0823 2.47702C23.2703 3.38331 25.1404 4.91805 26.4561 6.88717C27.7718 8.85629 28.4741 11.1713 28.4741 13.5396C28.4741 16.7153 27.2125 19.7609 24.967 22.0065C22.7214 24.2521 19.6757 25.5136 16.5 25.5136Z" fill="#EBCB00"/>
<path d="M12.5634 3.86194C12.5634 4.12296 12.9781 4.37329 13.7164 4.55785C14.4546 4.74242 15.456 4.84611 16.5 4.84611C17.5441 4.84611 18.5454 4.74242 19.2837 4.55785C20.0219 4.37329 20.4367 4.12296 20.4367 3.86194C20.4367 3.60093 20.0219 3.3506 19.2837 3.16603C18.5454 2.98147 17.5441 2.87778 16.5 2.87778C15.456 2.87778 14.4546 2.98147 13.7164 3.16603C12.9781 3.3506 12.5634 3.60093 12.5634 3.86194Z" fill="#FFF48C"/>
<path d="M3.37781 14.3597C3.37781 17.84 4.76032 21.1776 7.22122 23.6385C9.68211 26.0994 13.0198 27.4819 16.5 27.4819C19.9803 27.4819 23.3179 26.0994 25.7788 23.6385C28.2397 21.1776 29.6223 17.84 29.6223 14.3597C29.6223 10.8795 28.2397 7.5418 25.7788 5.08091C23.3179 2.62002 19.9803 1.2375 16.5 1.2375C13.0198 1.2375 9.68211 2.62002 7.22122 5.08091C4.76032 7.5418 3.37781 10.8795 3.37781 14.3597Z" stroke="#45413C" stroke-width="0.38" stroke-linecap="round" stroke-linejoin="round"/>
<path d="M26.0136 17.6403C26.0136 18.1849 25.2787 18.6244 24.3733 18.6244C23.4679 18.6244 22.733 18.1849 22.733 17.6403C22.733 17.0957 23.4679 16.6561 24.3733 16.6561C25.2787 16.6561 26.0136 17.0957 26.0136 17.6403Z" fill="#FFAA54"/>
<path d="M6.98633 17.6403C6.98633 18.1849 7.72117 18.6244 8.62661 18.6244C9.53204 18.6244 10.2669 18.1849 10.2669 17.6403C10.2669 17.0957 9.53204 16.6561 8.62661 16.6561C7.72117 16.6561 6.98633 17.0957 6.98633 17.6403Z" fill="#FFAA54"/>
<path d="M7.75403 10.7511C8.27857 10.3245 8.93468 10.0926 9.61082 10.095C10.2865 10.0953 10.9417 10.3268 11.4676 10.7511" stroke="#45413C" stroke-width="0.38" stroke-linecap="round" stroke-linejoin="round"/>
<path d="M25.2459 10.7511C24.7214 10.3245 24.0653 10.0926 23.3891 10.095C22.7135 10.0953 22.0582 10.3268 21.5323 10.7511" stroke="#45413C" stroke-width="0.38" stroke-linecap="round" stroke-linejoin="round"/>
<path d="M10.2669 14.0317C10.2669 14.1614 10.2285 14.2883 10.1564 14.3962C10.0843 14.5041 9.98179 14.5882 9.86191 14.6378C9.74202 14.6875 9.6101 14.7005 9.48282 14.6752C9.35555 14.6499 9.23864 14.5874 9.14688 14.4956C9.05512 14.4039 8.99264 14.2869 8.96732 14.1597C8.942 14.0324 8.955 13.9005 9.00466 13.7806C9.05432 13.6607 9.13841 13.5582 9.24631 13.4861C9.3542 13.414 9.48106 13.3756 9.61082 13.3756C9.78483 13.3756 9.95172 13.4447 10.0748 13.5677C10.1978 13.6908 10.2669 13.8577 10.2669 14.0317Z" fill="#45413C" stroke="#45413C" stroke-width="0.38" stroke-linecap="round" stroke-linejoin="round"/>
<path d="M22.733 14.0317C22.733 14.1614 22.7715 14.2883 22.8436 14.3962C22.9157 14.5041 23.0182 14.5882 23.1381 14.6378C23.258 14.6875 23.3899 14.7005 23.5171 14.6752C23.6444 14.6499 23.7613 14.5874 23.8531 14.4956C23.9448 14.4039 24.0073 14.2869 24.0326 14.1597C24.058 14.0324 24.045 13.9005 23.9953 13.7806C23.9457 13.6607 23.8616 13.5582 23.7537 13.4861C23.6458 13.414 23.5189 13.3756 23.3891 13.3756C23.2151 13.3756 23.0482 13.4447 22.9252 13.5677C22.8022 13.6908 22.733 13.8577 22.733 14.0317Z" fill="#45413C" stroke="#45413C" stroke-width="0.38" stroke-linecap="round" stroke-linejoin="round"/>
<path d="M17.4842 21.2489C17.4842 21.4435 17.4265 21.6338 17.3183 21.7957C17.2102 21.9575 17.0565 22.0837 16.8767 22.1581C16.6968 22.2326 16.4989 22.2521 16.308 22.2141C16.1171 22.1762 15.9418 22.0824 15.8041 21.9448C15.6665 21.8072 15.5728 21.6318 15.5348 21.4409C15.4968 21.25 15.5163 21.0521 15.5908 20.8723C15.6653 20.6924 15.7914 20.5387 15.9533 20.4306C16.1151 20.3224 16.3054 20.2647 16.5 20.2647C16.7611 20.2647 17.0114 20.3684 17.1959 20.553C17.3805 20.7375 17.4842 20.9879 17.4842 21.2489Z" fill="#FFB0CA" stroke="#45413C" stroke-width="0.38" stroke-linecap="round" stroke-linejoin="round"/>
</svg>
